# xmcd
#
# Track frame offsets:
#	150
#	16161
#	27724
#	41890
#	58181
#	72653
#	86568
#	99399
#	114553
#	130766
#	145238
#	154218
#	161060
#	179498
#	192402
#
# Disc length: 2726 seconds
#
# Revision: 0
# Processed by: cddbd v1.5.2PL0 Copyright (c) Steve Scherf et al.
# Submitted via: EasyCDDAExtractor 16.0.6.1
#
DISCID=dd0aa40f
DTITLE=Τα ζεϊμπέκικα της νύχτας
DYEAR=2012
DGENRE=Λαϊκή
TTITLE0=Καζαντζίδης Στέλιος - Βραδιάζει
TTITLE1=Ζαγοραίος Σπύρος - Ε ντε λα μαγκέν ντε Βοτανίκ
TTITLE2=Μπέλλου Σωτηρία - Ντερμπεντέρισσα
TTITLE3=Μαργαρίτης Γιώργος - Της Γερακίνας γιός
TTITLE4=Αγγελόπουλος Μανώλης - Η διπρόσωπη
TTITLE5=Γλυκερία - Τα μάνταλα
TTITLE6=Μητσιάς Μανώλης - Με τον βοριά
TTITLE7=Μαρινέλλα - Δεν θα ξαναγαπήσω
TTITLE8=Νταράλας Λουκάς - Το πλουσιόπαιδο
TTITLE9=Πάνου Πόλυ - Στον Πειραιά συννέφιασε
TTITLE10=Μοσχολιού Βίκυ - Ξημερώματα
TTITLE11=Μοσχολιού Βίκυ - Δεν ξέρω πόσο σ' αγαπώ
TTITLE12=Καρράς Βασίλης - Απόψε σιωπηλοί
TTITLE13=Αδαμαντίδης Θέμης - Καλύτερα μαζί σου και τρελλός
TTITLE14=Γονίδης Σταμάτης - Σου χρειάζεται
EXTD=
EXTT0=
EXTT1=
EXTT2=
EXTT3=
EXTT4=
EXTT5=
EXTT6=
EXTT7=
EXTT8=
EXTT9=
EXTT10=
EXTT11=
EXTT12=
EXTT13=
EXTT14=
PLAYORDER=
